<?xml version="1.0" standalone="no"?>
<!DOCTYPE svg PUBLIC "-//W3C//DTD SVG 20010904//EN"
 "http://www.w3.org/TR/2001/REC-SVG-20010904/DTD/svg10.dtd">
<svg version="1.0" xmlns="http://www.w3.org/2000/svg"
 width="1920.000000pt" height="1080.000000pt" viewBox="0 0 1920.000000 1080.000000"
 preserveAspectRatio="xMidYMid meet">

<g transform="translate(0.000000,1080.000000) scale(0.100000,-0.100000)"
fill="#000000" stroke="none">
<path fill="red" d="M9293 10208 c-40 -84 -86 -183 -93 -203 -4 -11 -29 -65 -55 -120 -26
-55 -60 -129 -75 -165 -15 -36 -42 -96 -59 -135 -31 -67 -47 -101 -90 -197
-10 -24 -33 -74 -50 -111 -17 -37 -31 -72 -31 -76 0 -5 -25 -62 -56 -127 -30
-66 -59 -128 -64 -139 -5 -11 -29 -65 -55 -119 -25 -55 -48 -110 -51 -123 -4
-12 -10 -23 -15 -23 -5 0 -9 -8 -10 -17 0 -10 -8 -31 -18 -47 -17 -30 -59 -47
-151 -61 -43 -6 -125 -24 -165 -35 -16 -4 -55 -14 -85 -21 -30 -6 -93 -24
-140 -39 -47 -15 -119 -38 -160 -50 -41 -13 -79 -27 -85 -32 -5 -4 -16 -8 -25
-8 -9 0 -33 -9 -55 -20 -22 -11 -45 -20 -53 -20 -7 0 -10 -5 -6 -11 4 -7 19
-8 43 -3 20 4 52 8 71 9 19 2 85 9 145 16 151 18 735 18 875 1 218 -28 214
-28 243 10 13 18 30 51 37 73 7 22 37 90 66 150 30 61 54 113 54 117 0 7 15
41 68 158 26 56 67 104 84 97 15 -5 130 -234 203 -402 47 -108 120 -266 173
-375 28 -57 30 -59 152 -114 128 -59 412 -235 460 -286 3 -3 43 -39 90 -80 47
-41 88 -79 92 -85 18 -26 18 10 -2 67 -30 88 -31 91 -83 201 -26 53 -47 101
-47 106 0 8 -129 285 -150 323 -6 10 -10 22 -10 28 0 10 -10 34 -66 155 -30
66 -72 160 -94 210 -10 22 -29 66 -44 97 -14 31 -26 60 -26 63 0 3 -12 32 -26
63 -54 118 -97 208 -115 245 -10 22 -19 45 -19 53 0 7 -24 62 -54 121 -81 160
-216 442 -216 450 0 4 -19 46 -42 93 -74 152 -78 162 -78 174 0 6 -8 23 -17
36 -10 14 -26 47 -35 74 -19 54 -44 96 -57 96 -4 0 -17 -19 -28 -42z"/>
<path fill="red" d="M8038 8044 c-4 -3 -51 -11 -105 -15 -152 -14 -243 -27 -400 -59 -29
-5 -74 -14 -100 -19 -112 -21 -429 -115 -448 -132 -5 -5 5 -9 25 -9 304 1 912
-23 1030 -40 176 -25 165 -22 163 -58 -1 -38 -27 -104 -96 -252 -27 -58 -60
-130 -74 -160 -13 -30 -38 -82 -53 -115 -44 -91 -110 -236 -110 -241 0 -4 -39
-89 -104 -227 -25 -54 -46 -100 -46 -102 0 -2 -21 -47 -46 -102 -75 -161 -96
-207 -104 -228 -4 -11 -13 -33 -19 -48 -6 -15 -11 -32 -11 -36 0 -16 99 -20
339 -13 226 8 244 9 255 28 6 10 27 55 47 99 20 44 48 106 62 138 15 32 27 63
27 70 0 7 9 23 20 37 11 14 20 31 20 38 0 7 4 20 8 30 5 9 25 51 45 92 44 92
151 336 162 370 4 14 27 67 51 117 24 51 44 97 44 103 0 6 6 21 14 33 7 12 26
51 42 87 45 105 90 170 117 170 31 0 257 -75 332 -110 131 -62 237 -110 241
-110 1 0 42 -22 90 -50 48 -27 89 -50 91 -50 11 0 288 -201 303 -220 3 -3 21
-17 40 -30 43 -30 225 -212 300 -300 30 -35 63 -73 73 -85 43 -46 144 -207
194 -307 29 -58 61 -112 70 -120 13 -10 75 -13 289 -13 150 0 275 3 279 7 3 3
-5 31 -19 62 -14 31 -26 61 -26 67 0 6 -8 28 -19 48 -10 20 -26 52 -34 71 -20
43 -67 123 -76 130 -4 3 -13 19 -21 35 -40 81 -143 244 -179 282 -12 12 -21
25 -21 29 0 4 -19 30 -42 59 -24 28 -52 64 -63 80 -57 81 -291 318 -379 385
-28 21 -75 57 -104 79 -29 23 -54 41 -56 41 -2 0 -44 26 -92 58 -49 32 -118
73 -154 91 -36 18 -69 36 -75 40 -17 13 -217 93 -270 108 -27 8 -54 18 -60 23
-5 4 -21 10 -35 13 -14 3 -43 11 -65 17 -22 6 -57 16 -77 21 -21 5 -57 14 -80
20 -84 21 -227 45 -358 60 -101 12 -742 23 -752 13z"/>
<path fill="white" d="M7430 5820 c-8 -5 -27 -11 -41 -14 -32 -7 -103 -58 -124 -90 -20 -31
-55 -125 -55 -149 0 -11 7 -44 16 -75 13 -44 28 -68 65 -104 86 -84 202 -99
319 -41 45 23 55 33 55 53 0 34 -29 37 -65 6 -58 -48 -173 -49 -236 -1 -41 32
-84 114 -84 163 0 82 76 174 160 193 46 10 139 -11 160 -36 15 -18 42 -19 58
-3 20 20 14 33 -30 56 -87 45 -164 62 -198 42z"/>
<path fill="white" d="M8062 5807 c-66 -23 -130 -76 -160 -132 -24 -43 -23 -177 1 -227 24
-51 87 -102 156 -127 66 -24 97 -26 155 -9 85 25 168 101 182 167 3 14 10 39
16 54 9 23 6 40 -18 100 -38 94 -92 150 -166 171 -90 26 -101 26 -166 3z m133
-52 c41 -12 61 -26 87 -58 42 -52 58 -89 58 -131 0 -69 -57 -157 -117 -182
-77 -33 -189 -5 -235 57 -41 56 -54 112 -39 167 23 88 65 136 132 152 50 12
56 11 114 -5z"/>
<path fill="white" d="M10030 5807 c-45 -15 -78 -34 -106 -63 -51 -50 -88 -142 -79 -194 20
-113 62 -176 145 -214 88 -40 247 -21 306 38 15 15 20 65 16 164 l-2 43 -102
-3 c-84 -2 -103 -6 -103 -18 0 -11 16 -16 67 -20 37 -3 72 -10 78 -16 6 -6 10
-33 8 -60 -3 -42 -7 -51 -37 -71 -27 -18 -48 -23 -102 -23 -124 0 -195 66
-206 192 -5 53 -3 61 30 110 64 97 165 124 267 71 51 -26 53 -27 66 -8 13 17
12 21 -8 37 -21 16 -90 40 -148 52 -14 2 -54 -5 -90 -17z"/>
<path fill="white" d="M11105 5811 c-163 -42 -238 -205 -169 -366 17 -41 61 -80 114 -103
55 -23 165 -37 175 -22 3 5 14 10 24 10 82 0 171 126 171 244 0 56 -24 124
-57 161 -25 29 -88 66 -121 72 -57 10 -108 11 -137 4z m116 -52 c58 -20 100
-59 125 -116 28 -64 29 -83 7 -143 -20 -55 -47 -86 -95 -111 -79 -41 -208 -11
-254 58 -32 48 -58 133 -45 146 6 6 11 23 11 38 0 32 38 81 89 114 40 27 107
32 162 14z"/>
<path fill="white" d="M8663 5803 c-10 -3 -13 -62 -13 -244 l0 -239 23 -1 c12 -1 27 0 32 1
6 1 75 5 155 9 119 5 145 9 145 21 0 12 -24 16 -135 20 l-135 5 -8 95 c-4 52
-11 149 -15 215 -7 122 -12 134 -49 118z"/>
<path fill="white" d="M9250 5565 l0 -235 182 2 c165 3 183 5 186 21 3 16 -9 17 -140 17
-79 0 -148 4 -155 8 -13 8 -20 132 -9 150 5 8 49 12 132 12 l124 0 0 30 0 30
-125 0 c-143 0 -145 1 -145 88 0 77 11 82 173 82 115 0 137 2 137 15 0 13 -27
15 -180 15 l-180 0 0 -235z"/>
<path fill="white" d="M10590 5565 l0 -235 25 0 25 0 0 235 0 235 -25 0 -25 0 0 -235z"/>
<path fill="white" d="M9496 5058 c-8 -13 -27 -54 -41 -93 -15 -38 -32 -81 -37 -95 -6 -14
-14 -34 -18 -45 -9 -24 -23 -58 -43 -105 -9 -19 -23 -55 -32 -80 -9 -25 -21
-54 -25 -65 -4 -11 -16 -40 -25 -65 -9 -25 -35 -86 -57 -136 -34 -77 -45 -95
-78 -113 -21 -11 -47 -21 -59 -21 -28 0 -27 -18 2 -25 41 -10 261 2 265 14 2
6 -4 11 -13 11 -29 0 -75 40 -75 64 0 24 28 114 55 179 l15 37 134 0 c74 0
141 -3 150 -6 8 -3 22 -31 32 -62 9 -31 21 -61 26 -66 4 -6 8 -20 8 -32 0 -13
5 -26 10 -29 6 -3 10 -17 10 -31 0 -18 -9 -28 -37 -41 -50 -23 -50 -23 -33
-33 7 -4 36 -7 64 -5 28 2 93 4 144 4 50 1 92 5 92 9 0 4 -16 14 -35 21 -63
22 -64 25 -245 521 -23 63 -45 124 -50 135 -5 11 -19 49 -31 85 -32 95 -47
109 -73 68z m-3 -175 c3 -10 27 -82 55 -160 27 -78 47 -144 44 -147 -3 -3 -54
-6 -114 -6 -85 0 -110 3 -114 14 -8 22 100 316 116 316 4 0 10 -8 13 -17z"/>
<path fill="white" d="M12381 5064 c-41 -8 -97 -21 -125 -30 -51 -16 -177 -73 -186 -85 -3
-3 -19 -13 -36 -22 -34 -17 -115 -95 -168 -160 -40 -51 -99 -166 -115 -227 -7
-25 -17 -59 -22 -76 -5 -17 -9 -75 -9 -129 0 -54 4 -112 9 -129 5 -17 15 -51
22 -76 14 -49 65 -154 89 -184 40 -49 106 -123 129 -143 132 -112 169 -135
466 -293 306 -163 433 -275 487 -430 35 -100 41 -153 28 -242 -22 -144 -62
-229 -141 -304 -70 -65 -123 -90 -247 -114 -71 -13 -123 -13 -207 4 -174 33
-286 107 -406 269 -51 68 -129 210 -129 235 0 4 -9 27 -20 50 -11 22 -20 46
-20 51 0 6 -5 21 -12 35 -10 23 -15 25 -52 20 -23 -4 -45 -10 -51 -15 -11 -8
-4 -114 15 -229 5 -36 13 -90 16 -120 3 -30 9 -64 14 -75 5 -11 11 -40 14 -65
7 -64 21 -134 30 -149 16 -26 215 -98 366 -132 62 -14 389 -18 460 -5 102 19
242 71 360 136 56 30 220 183 220 204 0 7 14 25 30 41 17 16 30 36 30 46 0 9
9 28 20 42 11 14 20 33 20 42 0 22 28 111 46 148 26 53 14 208 -25 335 -13 44
-77 157 -110 196 -78 93 -225 211 -337 272 -11 6 -50 27 -85 46 -111 61 -246
128 -258 128 -6 0 -11 3 -11 8 0 4 -22 18 -49 31 -58 29 -181 118 -237 173
-52 49 -119 182 -135 265 -17 92 -8 197 22 263 47 101 166 209 279 255 61 24
222 25 305 1 128 -37 245 -145 314 -291 24 -49 47 -98 52 -107 5 -10 9 -26 9
-36 0 -10 4 -22 9 -27 5 -6 11 -23 13 -40 3 -26 8 -30 37 -33 33 -3 91 14 91
27 0 10 -27 180 -40 250 -6 30 -10 84 -10 120 -1 83 -24 182 -47 198 -9 7 -25
13 -34 13 -10 0 -20 4 -23 9 -3 5 -20 11 -38 14 -35 6 -165 32 -236 48 -60 13
-293 9 -381 -7z"/>
<path fill="white" d="M7920 5062 c-25 -9 -6 -31 35 -41 72 -18 75 -29 75 -311 0 -194 3
-253 16 -298 27 -93 59 -132 146 -175 65 -33 86 -38 149 -40 157 -4 263 60
321 193 30 68 38 143 38 346 0 244 4 261 77 296 l48 23 -115 5 c-141 6 -200 2
-200 -14 0 -7 25 -20 55 -30 83 -26 87 -40 82 -301 -5 -263 -20 -329 -92 -398
-57 -54 -172 -74 -248 -42 -48 20 -104 70 -121 109 -41 88 -45 127 -39 371 6
232 6 235 30 250 13 9 37 18 53 22 41 8 39 33 -2 33 -18 0 -93 2 -166 3 -72 1
-137 1 -142 -1z"/>
<path fill="white" d="M10358 5060 c-74 -5 -79 -18 -17 -39 21 -7 45 -20 56 -29 40 -36 43
-63 42 -335 0 -307 -9 -372 -55 -399 -16 -10 -37 -18 -46 -18 -10 0 -18 -4
-18 -10 0 -6 55 -10 144 -10 86 0 147 4 151 10 3 6 -2 10 -13 10 -10 0 -33 7
-51 16 -61 30 -62 35 -61 324 0 144 3 266 6 271 10 18 24 8 66 -45 24 -29 105
-127 182 -217 182 -216 173 -205 211 -255 52 -68 117 -134 132 -134 11 0 13
66 13 361 0 420 2 432 67 461 23 10 45 23 48 28 6 10 -271 19 -287 9 -16 -10
1 -29 25 -29 42 0 84 -35 92 -77 9 -44 18 -510 11 -530 -6 -15 -74 56 -195
202 -46 55 -95 114 -110 130 -15 17 -60 71 -101 120 -41 50 -81 96 -88 103 -7
8 -24 29 -38 47 -28 37 -56 43 -166 35z"/>
<path fill="white" d="M7190 5045 c0 -9 17 -19 45 -26 75 -19 75 -18 74 -396 0 -443 -14
-516 -112 -578 -25 -16 -26 -20 -14 -32 13 -13 20 -11 56 11 64 41 124 109
150 173 24 56 25 72 35 425 10 350 12 368 31 382 11 7 35 17 53 21 18 3 32 13
32 21 0 12 -30 14 -175 14 -148 0 -175 -2 -175 -15z"/>
<path fill="white" d="M6075 5035 c-22 -8 -47 -15 -56 -15 -13 0 -49 -61 -49 -83 0 -4 -9
-29 -21 -55 -32 -72 -43 -98 -74 -182 -9 -25 -22 -58 -30 -75 -7 -16 -23 -55
-35 -85 -12 -30 -29 -71 -37 -90 -8 -19 -18 -44 -23 -55 -4 -11 -12 -31 -18
-45 -5 -14 -15 -41 -22 -60 -15 -44 -23 -63 -49 -122 -12 -26 -21 -52 -21 -56
0 -5 -6 -22 -14 -38 -27 -57 -45 -100 -66 -164 -13 -36 -26 -69 -30 -75 -3 -5
-32 -75 -64 -155 -32 -80 -62 -153 -67 -162 -5 -10 -9 -23 -9 -28 0 -6 -9 -30
-20 -52 -11 -23 -20 -45 -20 -50 0 -8 -7 -24 -59 -140 -11 -26 -21 -54 -21
-62 0 -8 -4 -18 -10 -21 -5 -3 -10 -12 -10 -20 0 -17 -125 -319 -191 -460 -77
-163 -173 -236 -341 -260 -58 -9 -70 -22 -66 -71 l3 -38 388 3 c245 1 387 -1
387 -7 0 -14 32 -24 43 -13 5 5 21 6 39 1 50 -15 59 -5 56 59 l-3 56 -75 11
c-152 22 -201 47 -221 115 -10 30 -9 49 0 82 21 72 104 331 112 347 4 8 16 47
28 85 12 39 26 79 30 90 5 11 15 40 22 65 25 87 -14 81 482 78 379 -3 441 -5
447 -18 4 -8 12 -25 18 -37 7 -13 12 -32 12 -42 0 -11 5 -23 10 -26 6 -3 10
-17 10 -30 0 -13 4 -26 9 -29 4 -3 16 -31 25 -63 17 -55 48 -145 66 -188 5
-11 14 -38 21 -60 6 -22 15 -49 20 -60 4 -11 13 -38 20 -60 6 -22 15 -48 20
-57 15 -30 10 -101 -9 -123 -26 -31 -97 -58 -187 -71 -59 -8 -65 -15 -65 -72
l0 -42 518 2 517 3 0 50 0 50 -65 12 c-109 19 -141 31 -193 67 -32 24 -98 121
-127 191 -35 83 -38 89 -50 125 -7 19 -16 45 -21 58 -5 12 -13 32 -18 45 -4
12 -13 33 -19 47 -6 14 -15 39 -20 55 -6 17 -27 75 -47 130 -20 55 -45 125
-55 155 -10 30 -57 159 -105 285 -48 127 -91 241 -95 255 -5 14 -22 63 -40
110 -17 47 -38 105 -46 130 -8 25 -19 54 -23 65 -26 63 -31 78 -31 95 0 11 -4
20 -10 20 -5 0 -10 9 -10 20 0 11 -4 28 -9 38 -6 9 -31 76 -57 147 -25 72 -50
139 -54 150 -5 11 -18 47 -30 80 -12 33 -26 69 -30 80 -5 11 -14 38 -21 60 -7
22 -17 44 -21 50 -4 5 -8 18 -8 30 0 12 -4 25 -9 31 -5 5 -16 29 -24 54 -17
51 -26 55 -82 35z m-105 -559 c0 -7 9 -38 21 -67 47 -119 71 -189 76 -222 3
-15 9 -30 14 -33 5 -3 9 -14 9 -25 0 -10 4 -27 10 -37 5 -9 19 -44 29 -77 11
-33 39 -112 61 -175 23 -63 44 -124 47 -135 2 -11 8 -29 13 -40 10 -23 59
-162 67 -187 5 -17 -17 -18 -371 -18 -257 0 -376 3 -376 11 0 19 86 268 140
404 4 11 18 47 30 80 12 33 26 69 30 80 38 96 50 130 50 141 0 7 12 39 26 71
14 32 32 78 41 103 29 85 63 151 73 145 5 -3 10 -12 10 -19z"/>
<path fill="white" d="M10555 4000 c-11 -5 -35 -9 -54 -9 -34 -1 -90 -15 -123 -32 -10 -5
-24 -9 -31 -9 -8 0 -49 -18 -92 -40 -285 -147 -469 -456 -469 -790 1 -104 8
-152 40 -255 93 -299 314 -495 647 -574 70 -16 266 -14 317 4 23 8 46 12 51 9
25 -15 285 106 349 163 122 108 172 171 224 276 67 138 88 225 94 397 4 128 2
155 -18 230 -45 170 -130 314 -250 422 -60 55 -170 125 -230 147 -19 7 -44 17
-55 21 -28 11 -93 28 -135 35 -61 11 -244 15 -265 5z m176 -91 c77 -19 107
-31 184 -72 50 -28 159 -143 202 -216 62 -103 95 -207 118 -371 19 -132 19
-195 0 -318 -24 -158 -69 -278 -141 -372 -70 -92 -144 -145 -258 -183 -80 -27
-222 -23 -310 9 -106 38 -153 69 -236 154 -84 86 -142 185 -185 315 -37 109
-46 167 -52 325 -6 163 15 278 74 409 75 167 197 274 367 322 83 23 138 23
237 -2z"/>
<path fill="white" d="M7655 3959 c-4 -5 -4 -21 -1 -33 6 -24 38 -36 99 -36 33 0 87 -32
106 -63 23 -36 31 -128 21 -251 -13 -169 -30 -405 -35 -506 -3 -47 -8 -96 -10
-110 -3 -14 -10 -79 -15 -145 -12 -137 -16 -173 -32 -270 -16 -103 -59 -142
-171 -159 -45 -7 -48 -9 -45 -34 l3 -27 270 -3 c149 -2 280 0 293 3 15 4 22
13 22 29 0 20 -6 24 -49 29 -28 3 -72 16 -100 27 -76 33 -76 33 -73 400 2 173
7 331 12 350 5 19 10 94 11 165 2 155 14 299 27 322 9 16 21 -3 52 -82 4 -11
17 -40 28 -65 44 -99 172 -400 172 -406 0 -2 10 -26 21 -52 12 -26 28 -62 35
-79 8 -18 20 -48 28 -65 8 -18 31 -73 51 -123 35 -84 47 -112 80 -190 7 -16
32 -75 55 -130 23 -55 48 -106 56 -114 19 -21 62 1 70 36 4 15 29 74 56 129
26 56 48 104 48 107 0 2 25 58 56 123 98 208 93 199 176 389 17 39 54 122 83
185 29 63 72 158 94 210 56 128 76 164 93 168 13 2 16 -40 21 -275 4 -153 7
-416 7 -584 0 -256 -3 -313 -16 -353 -20 -59 -56 -83 -137 -92 -55 -6 -58 -8
-55 -33 l3 -26 320 -1 c176 0 325 1 330 3 10 3 15 52 5 54 -3 0 -27 2 -55 5
-67 7 -115 32 -139 73 -25 43 -31 155 -46 803 -8 346 -8 509 -1 536 16 59 46
80 142 100 78 16 84 19 84 42 l0 25 -220 0 -220 0 -37 -75 c-40 -82 -117 -246
-139 -297 -8 -18 -17 -33 -21 -33 -5 0 -8 -7 -8 -15 0 -15 -29 -79 -141 -312
-33 -67 -59 -124 -59 -127 0 -6 -77 -172 -131 -281 -21 -44 -39 -86 -39 -92 0
-7 -7 -13 -15 -13 -15 0 -71 110 -200 395 -15 33 -47 102 -71 153 -24 51 -44
94 -44 97 0 2 -21 48 -46 102 -149 318 -169 361 -203 436 l-30 67 -210 0
c-137 0 -212 -4 -216 -11z"/>
<path fill="white" d="M6309 2017 c-69 -32 -123 -101 -144 -185 -15 -58 -15 -67 0 -111 18
-54 84 -130 137 -157 24 -12 56 -17 116 -16 69 0 93 5 138 27 63 31 68 36 51
59 -11 15 -18 13 -82 -19 -69 -34 -137 -46 -150 -25 -3 6 -13 10 -22 10 -28 0
-84 51 -104 94 -20 44 -26 150 -9 161 6 3 10 14 10 24 0 21 52 71 101 96 42
21 107 18 155 -8 67 -37 76 -38 95 -21 24 21 18 29 -41 59 -42 21 -62 25 -137
24 -48 0 -99 -6 -114 -12z"/>
<path fill="white" d="M7290 2011 c-64 -32 -78 -44 -109 -96 -26 -43 -31 -62 -33 -121 -1
-57 3 -78 24 -119 48 -92 108 -125 232 -125 101 0 127 10 184 70 61 63 75 94
75 170 1 96 -49 176 -135 221 -50 26 -187 26 -238 0z m184 -35 c58 -29 106
-73 106 -97 0 -10 5 -21 10 -24 6 -3 10 -33 10 -65 0 -56 -17 -104 -53 -148
-17 -21 -108 -62 -136 -62 -75 1 -172 71 -191 139 -13 48 -13 127 1 154 21 41
93 107 115 107 13 0 26 5 29 10 11 17 60 11 109 -14z"/>
<path fill="white" d="M8240 1790 l0 -240 24 0 c13 0 27 7 30 16 3 9 6 85 6 170 0 143 1
154 18 154 11 0 31 -20 50 -47 45 -70 105 -146 117 -150 6 -1 30 27 55 64 25
36 55 81 68 100 13 19 31 33 42 33 19 0 20 -7 20 -154 0 -85 3 -161 6 -170 9
-24 43 -20 49 7 3 12 4 119 3 237 l-3 215 -26 3 c-21 2 -31 -4 -47 -30 -12
-18 -32 -47 -44 -64 -13 -17 -32 -44 -43 -60 -10 -16 -32 -44 -47 -62 l-29
-33 -31 35 c-17 19 -36 44 -42 54 -6 11 -33 52 -60 91 -44 64 -52 71 -82 71
l-34 0 0 -240z"/>
<path fill="white" d="M9330 1791 c0 -220 1 -240 18 -245 20 -6 350 -1 356 5 2 2 0 14 -5
27 -8 21 -12 22 -148 22 -164 0 -164 0 -159 103 l3 62 135 3 c128 2 159 10
144 34 -3 4 -63 8 -134 8 -149 0 -144 -4 -138 105 l3 60 145 3 c144 3 165 8
153 39 -4 10 -45 13 -189 13 l-184 0 0 -239z"/>
<path fill="white" d="M10280 1791 c0 -249 1 -254 43 -243 15 4 17 20 17 167 0 197 7 211
66 138 21 -27 54 -66 73 -89 20 -22 52 -60 71 -84 75 -95 113 -130 136 -130
l24 0 0 240 0 240 -30 0 -30 0 0 -169 c0 -96 -4 -172 -9 -176 -6 -3 -56 50
-112 117 -56 68 -118 143 -138 166 -20 24 -37 48 -39 53 -2 5 -19 9 -38 9
l-34 0 0 -239z"/>
<path fill="white" d="M11320 1795 c0 -205 2 -236 16 -242 8 -3 20 -1 25 4 8 8 13 282 9
466 0 4 -11 7 -25 7 l-25 0 0 -235z"/>
<path fill="white" d="M12105 2009 c-93 -46 -137 -120 -136 -229 1 -149 91 -230 254 -230
102 0 166 33 219 114 35 54 38 65 38 128 0 100 -46 180 -125 217 -61 29 -192
29 -250 0z m163 -28 c46 -13 132 -85 132 -111 0 -10 5 -22 10 -25 15 -9 12
-108 -4 -146 -20 -47 -62 -85 -116 -103 -62 -22 -84 -20 -144 10 -102 51 -129
97 -118 202 9 80 38 131 86 152 78 34 92 38 103 35 6 -2 29 -9 51 -14z"/>
</g>
</svg>
